<?xml version="1.0" encoding="UTF-8" standalone="no"?>
<!DOCTYPE svg PUBLIC "-//W3C//DTD SVG 1.1//EN"
 "http://www.w3.org/Graphics/SVG/1.1/DTD/svg11.dtd">
<!-- Generated by graphviz version 2.43.0 (0)
 -->
<!-- Title: %3 Pages: 1 -->
<svg width="1158pt" height="1290pt"
 viewBox="0.00 0.00 1158.00 1290.00" xmlns="http://www.w3.org/2000/svg" xmlns:xlink="http://www.w3.org/1999/xlink">
<g id="graph0" class="graph" transform="scale(1 1) rotate(0) translate(144 1146)">
<title>%3</title>
<polygon fill="white" stroke="transparent" points="-144,144 -144,-1146 1014,-1146 1014,144 -144,144"/>
<g id="clust1" class="cluster">
<title>cluster_UI</title>
<path fill="#e5f5fd" stroke="#aeb6be" d="M28,-820C28,-820 554,-820 554,-820 560,-820 566,-826 566,-832 566,-832 566,-982 566,-982 566,-988 560,-994 554,-994 554,-994 28,-994 28,-994 22,-994 16,-988 16,-982 16,-982 16,-832 16,-832 16,-826 22,-820 28,-820"/>
<text text-anchor="middle" x="30.5" y="-980.4" font-family="Sans-Serif" font-size="12.00" fill="#2d3436">UI</text>
</g>
<g id="clust2" class="cluster">
<title>cluster_Gateways</title>
<path fill="#e5f5fd" stroke="#aeb6be" d="M28,-601C28,-601 850,-601 850,-601 856,-601 862,-607 862,-613 862,-613 862,-800 862,-800 862,-806 856,-812 850,-812 850,-812 28,-812 28,-812 22,-812 16,-806 16,-800 16,-800 16,-613 16,-613 16,-607 22,-601 28,-601"/>
<text text-anchor="middle" x="53.5" y="-798.4" font-family="Sans-Serif" font-size="12.00" fill="#2d3436">Gateways</text>
</g>
<g id="clust3" class="cluster">
<title>cluster_Authentication &amp; Authorization</title>
<path fill="#ebf3e7" stroke="#aeb6be" d="M604,-609C604,-609 842,-609 842,-609 848,-609 854,-615 854,-621 854,-621 854,-771 854,-771 854,-777 848,-783 842,-783 842,-783 604,-783 604,-783 598,-783 592,-777 592,-771 592,-771 592,-621 592,-621 592,-615 598,-609 604,-609"/>
<text text-anchor="middle" x="692" y="-769.4" font-family="Sans-Serif" font-size="12.00" fill="#2d3436">Authentication &amp; Authorization</text>
</g>
<g id="clust4" class="cluster">
<title>cluster_Services</title>
<path fill="#e5f5fd" stroke="#aeb6be" d="M20,-191C20,-191 562,-191 562,-191 568,-191 574,-197 574,-203 574,-203 574,-581 574,-581 574,-587 568,-593 562,-593 562,-593 20,-593 20,-593 14,-593 8,-587 8,-581 8,-581 8,-203 8,-203 8,-197 14,-191 20,-191"/>
<text text-anchor="middle" x="41.5" y="-579.4" font-family="Sans-Serif" font-size="12.00" fill="#2d3436">Services</text>
</g>
<g id="clust5" class="cluster">
<title>cluster_Consumer</title>
<path fill="#ebf3e7" stroke="#aeb6be" d="M316,-390C316,-390 410,-390 410,-390 416,-390 422,-396 422,-402 422,-402 422,-552 422,-552 422,-558 416,-564 410,-564 410,-564 316,-564 316,-564 310,-564 304,-558 304,-552 304,-552 304,-402 304,-402 304,-396 310,-390 316,-390"/>
<text text-anchor="middle" x="343" y="-550.4" font-family="Sans-Serif" font-size="12.00" fill="#2d3436">Consumer</text>
</g>
<g id="clust6" class="cluster">
<title>cluster_Merchant</title>
<path fill="#ebf3e7" stroke="#aeb6be" d="M172,-199C172,-199 266,-199 266,-199 272,-199 278,-205 278,-211 278,-211 278,-552 278,-552 278,-558 272,-564 266,-564 266,-564 172,-564 172,-564 166,-564 160,-558 160,-552 160,-552 160,-211 160,-211 160,-205 166,-199 172,-199"/>
<text text-anchor="middle" x="196.5" y="-550.4" font-family="Sans-Serif" font-size="12.00" fill="#2d3436">Merchant</text>
</g>
<g id="clust7" class="cluster">
<title>cluster_Funder</title>
<path fill="#ebf3e7" stroke="#aeb6be" d="M28,-199C28,-199 122,-199 122,-199 128,-199 134,-205 134,-211 134,-211 134,-552 134,-552 134,-558 128,-564 122,-564 122,-564 28,-564 28,-564 22,-564 16,-558 16,-552 16,-552 16,-211 16,-211 16,-205 22,-199 28,-199"/>
<text text-anchor="middle" x="45" y="-550.4" font-family="Sans-Serif" font-size="12.00" fill="#2d3436">Funder</text>
</g>
<g id="clust8" class="cluster">
<title>cluster_Admin</title>
<path fill="#ebf3e7" stroke="#aeb6be" d="M460,-390C460,-390 554,-390 554,-390 560,-390 566,-396 566,-402 566,-402 566,-552 566,-552 566,-558 560,-564 554,-564 554,-564 460,-564 460,-564 454,-564 448,-558 448,-552 448,-552 448,-402 448,-402 448,-396 454,-390 460,-390"/>
<text text-anchor="middle" x="475.5" y="-550.4" font-family="Sans-Serif" font-size="12.00" fill="#2d3436">Admin</text>
</g>
<g id="clust9" class="cluster">
<title>cluster_QR</title>
<path fill="#ebf3e7" stroke="#aeb6be" d="M316,-199C316,-199 554,-199 554,-199 560,-199 566,-205 566,-211 566,-211 566,-361 566,-361 566,-367 560,-373 554,-373 554,-373 316,-373 316,-373 310,-373 304,-367 304,-361 304,-361 304,-211 304,-211 304,-205 310,-199 316,-199"/>
<text text-anchor="middle" x="321.5" y="-359.4" font-family="Sans-Serif" font-size="12.00" fill="#2d3436">QR</text>
</g>
<g id="clust10" class="cluster">
<title>cluster_Databases</title>
<path fill="#e5f5fd" stroke="#aeb6be" d="M100,-8C100,-8 482,-8 482,-8 488,-8 494,-14 494,-20 494,-20 494,-170 494,-170 494,-176 488,-182 482,-182 482,-182 100,-182 100,-182 94,-182 88,-176 88,-170 88,-170 88,-20 88,-20 88,-14 94,-8 100,-8"/>
<text text-anchor="middle" x="128" y="-168.4" font-family="Sans-Serif" font-size="12.00" fill="#2d3436">Databases</text>
</g>
<!-- 2d50158746084f76b9dc8741b21e846d -->
<g id="node1" class="node">
<title>2d50158746084f76b9dc8741b21e846d</title>
<image xlink:href="/home/matt/WebDev/web-app/infrastructure/tools/venv/lib/python3.11/site-packages/resources/generic/os/android.png" width="101px" height="101px" preserveAspectRatio="xMinYMin meet" x="168.5" y="-947"/>
<text text-anchor="middle" x="219" y="-831.6" font-family="Sans-Serif" font-size="13.00" fill="#2d3436">Android App</text>
</g>
<!-- 4a2b198f70ee4cd68a0743d4e8eef4e0 -->
<g id="node5" class="node">
<title>4a2b198f70ee4cd68a0743d4e8eef4e0</title>
<image xlink:href="/home/matt/WebDev/web-app/infrastructure/tools/venv/lib/python3.11/site-packages/resources/programming/framework/fastapi.png" width="101px" height="101px" preserveAspectRatio="xMinYMin meet" x="312.5" y="-736"/>
<text text-anchor="middle" x="363" y="-620.6" font-family="Sans-Serif" font-size="13.00" fill="#2d3436">Public Gateway</text>
</g>
<!-- 2d50158746084f76b9dc8741b21e846d&#45;&gt;4a2b198f70ee4cd68a0743d4e8eef4e0 -->
<g id="edge1" class="edge">
<title>2d50158746084f76b9dc8741b21e846d&#45;&gt;4a2b198f70ee4cd68a0743d4e8eef4e0</title>
<path fill="none" stroke="#7b8894" d="M269.69,-839.63C277.13,-830.62 284.47,-821.22 291,-812 301.84,-796.69 312.48,-779.64 322.12,-763.16"/>
<polygon fill="#7b8894" stroke="#7b8894" points="325.4,-764.48 327.37,-754.07 319.33,-760.98 325.4,-764.48"/>
</g>
<!-- 23d770502f99426fb075b65c5e0a7737 -->
<g id="node6" class="node">
<title>23d770502f99426fb075b65c5e0a7737</title>
<image xlink:href="/home/matt/WebDev/web-app/infrastructure/tools/venv/lib/python3.11/site-packages/resources/programming/framework/fastapi.png" width="101px" height="101px" preserveAspectRatio="xMinYMin meet" x="168.5" y="-736"/>
<text text-anchor="middle" x="219" y="-620.6" font-family="Sans-Serif" font-size="13.00" fill="#2d3436">Merchant Gateway</text>
</g>
<!-- 2d50158746084f76b9dc8741b21e846d&#45;&gt;23d770502f99426fb075b65c5e0a7737 -->
<g id="edge3" class="edge">
<title>2d50158746084f76b9dc8741b21e846d&#45;&gt;23d770502f99426fb075b65c5e0a7737</title>
<path fill="none" stroke="#7b8894" d="M219,-827.93C219,-807.64 219,-785.21 219,-764.31"/>
<polygon fill="#7b8894" stroke="#7b8894" points="222.5,-764.19 219,-754.19 215.5,-764.19 222.5,-764.19"/>
</g>
<!-- a0e4b59e9909487ab48a835f39190b5f -->
<g id="node2" class="node">
<title>a0e4b59e9909487ab48a835f39190b5f</title>
<image xlink:href="/home/matt/WebDev/web-app/infrastructure/tools/venv/lib/python3.11/site-packages/resources/generic/os/ios.png" width="101px" height="101px" preserveAspectRatio="xMinYMin meet" x="312.5" y="-947"/>
<text text-anchor="middle" x="363" y="-831.6" font-family="Sans-Serif" font-size="13.00" fill="#2d3436">Apple App</text>
</g>
<!-- a0e4b59e9909487ab48a835f39190b5f&#45;&gt;4a2b198f70ee4cd68a0743d4e8eef4e0 -->
<g id="edge2" class="edge">
<title>a0e4b59e9909487ab48a835f39190b5f&#45;&gt;4a2b198f70ee4cd68a0743d4e8eef4e0</title>
<path fill="none" stroke="#7b8894" d="M363,-827.93C363,-807.64 363,-785.21 363,-764.31"/>
<polygon fill="#7b8894" stroke="#7b8894" points="366.5,-764.19 363,-754.19 359.5,-764.19 366.5,-764.19"/>
</g>
<!-- a0e4b59e9909487ab48a835f39190b5f&#45;&gt;23d770502f99426fb075b65c5e0a7737 -->
<g id="edge4" class="edge">
<title>a0e4b59e9909487ab48a835f39190b5f&#45;&gt;23d770502f99426fb075b65c5e0a7737</title>
<path fill="none" stroke="#7b8894" d="M312.31,-839.63C304.87,-830.62 297.53,-821.22 291,-812 280.16,-796.69 269.52,-779.64 259.88,-763.16"/>
<polygon fill="#7b8894" stroke="#7b8894" points="262.67,-760.98 254.63,-754.07 256.6,-764.48 262.67,-760.98"/>
</g>
<!-- 5123f0e6b1c5496489b7682f33885ce2 -->
<g id="node3" class="node">
<title>5123f0e6b1c5496489b7682f33885ce2</title>
<image xlink:href="/home/matt/WebDev/web-app/infrastructure/tools/venv/lib/python3.11/site-packages/resources/programming/framework/react.png" width="101px" height="101px" preserveAspectRatio="xMinYMin meet" x="24.5" y="-947"/>
<text text-anchor="middle" x="75" y="-831.6" font-family="Sans-Serif" font-size="13.00" fill="#2d3436">Funder dashboard</text>
</g>
<!-- 13dc8e7db40b4419925ea82bb69ca8df -->
<g id="node7" class="node">
<title>13dc8e7db40b4419925ea82bb69ca8df</title>
<image xlink:href="/home/matt/WebDev/web-app/infrastructure/tools/venv/lib/python3.11/site-packages/resources/programming/framework/fastapi.png" width="101px" height="101px" preserveAspectRatio="xMinYMin meet" x="24.5" y="-736"/>
<text text-anchor="middle" x="75" y="-620.6" font-family="Sans-Serif" font-size="13.00" fill="#2d3436">Funder Gateway</text>
</g>
<!-- 5123f0e6b1c5496489b7682f33885ce2&#45;&gt;13dc8e7db40b4419925ea82bb69ca8df -->
<g id="edge5" class="edge">
<title>5123f0e6b1c5496489b7682f33885ce2&#45;&gt;13dc8e7db40b4419925ea82bb69ca8df</title>
<path fill="none" stroke="#7b8894" d="M75,-827.93C75,-807.64 75,-785.21 75,-764.31"/>
<polygon fill="#7b8894" stroke="#7b8894" points="78.5,-764.19 75,-754.19 71.5,-764.19 78.5,-764.19"/>
</g>
<!-- 8e935fff0c35409d92928bb9da5047d2 -->
<g id="node4" class="node">
<title>8e935fff0c35409d92928bb9da5047d2</title>
<image xlink:href="/home/matt/WebDev/web-app/infrastructure/tools/venv/lib/python3.11/site-packages/resources/programming/framework/react.png" width="101px" height="101px" preserveAspectRatio="xMinYMin meet" x="456.5" y="-947"/>
<text text-anchor="middle" x="507" y="-831.6" font-family="Sans-Serif" font-size="13.00" fill="#2d3436">Admin dashboard</text>
</g>
<!-- d45eb0c60c3540f688eaa387086c6674 -->
<g id="node8" class="node">
<title>d45eb0c60c3540f688eaa387086c6674</title>
<image xlink:href="/home/matt/WebDev/web-app/infrastructure/tools/venv/lib/python3.11/site-packages/resources/programming/framework/fastapi.png" width="101px" height="101px" preserveAspectRatio="xMinYMin meet" x="456.5" y="-736"/>
<text text-anchor="middle" x="507" y="-620.6" font-family="Sans-Serif" font-size="13.00" fill="#2d3436">Admin Gateway</text>
</g>
<!-- 8e935fff0c35409d92928bb9da5047d2&#45;&gt;d45eb0c60c3540f688eaa387086c6674 -->
<g id="edge6" class="edge">
<title>8e935fff0c35409d92928bb9da5047d2&#45;&gt;d45eb0c60c3540f688eaa387086c6674</title>
<path fill="none" stroke="#7b8894" d="M507,-827.93C507,-807.64 507,-785.21 507,-764.31"/>
<polygon fill="#7b8894" stroke="#7b8894" points="510.5,-764.19 507,-754.19 503.5,-764.19 510.5,-764.19"/>
</g>
<!-- 9ed414aa58c948069db1b57a3ebcfb66 -->
<g id="node11" class="node">
<title>9ed414aa58c948069db1b57a3ebcfb66</title>
<image xlink:href="/home/matt/WebDev/web-app/infrastructure/tools/venv/lib/python3.11/site-packages/resources/programming/language/python.png" width="101px" height="101px" preserveAspectRatio="xMinYMin meet" x="312.5" y="-517"/>
<text text-anchor="middle" x="363" y="-401.6" font-family="Sans-Serif" font-size="13.00" fill="#2d3436">Scan QR</text>
</g>
<!-- 4a2b198f70ee4cd68a0743d4e8eef4e0&#45;&gt;9ed414aa58c948069db1b57a3ebcfb66 -->
<g id="edge7" class="edge">
<title>4a2b198f70ee4cd68a0743d4e8eef4e0&#45;&gt;9ed414aa58c948069db1b57a3ebcfb66</title>
<path fill="none" stroke="#7b8894" d="M363,-616.73C363,-594.09 363,-568.68 363,-545.34"/>
<polygon fill="#7b8894" stroke="#7b8894" points="366.5,-545.13 363,-535.13 359.5,-545.13 366.5,-545.13"/>
</g>
<!-- f0e4eb0f54a64bd6a8c4a53065c6d482 -->
<g id="node12" class="node">
<title>f0e4eb0f54a64bd6a8c4a53065c6d482</title>
<image xlink:href="/home/matt/WebDev/web-app/infrastructure/tools/venv/lib/python3.11/site-packages/resources/programming/language/python.png" width="101px" height="101px" preserveAspectRatio="xMinYMin meet" x="168.5" y="-517"/>
<text text-anchor="middle" x="219" y="-401.6" font-family="Sans-Serif" font-size="13.00" fill="#2d3436">Make Payment QR</text>
</g>
<!-- 23d770502f99426fb075b65c5e0a7737&#45;&gt;f0e4eb0f54a64bd6a8c4a53065c6d482 -->
<g id="edge8" class="edge">
<title>23d770502f99426fb075b65c5e0a7737&#45;&gt;f0e4eb0f54a64bd6a8c4a53065c6d482</title>
<path fill="none" stroke="#7b8894" d="M219,-616.73C219,-594.09 219,-568.68 219,-545.34"/>
<polygon fill="#7b8894" stroke="#7b8894" points="222.5,-545.13 219,-535.13 215.5,-545.13 222.5,-545.13"/>
</g>
<!-- 607bbe0c15094154af5cd6abcbca138c -->
<g id="node14" class="node">
<title>607bbe0c15094154af5cd6abcbca138c</title>
<image xlink:href="/home/matt/WebDev/web-app/infrastructure/tools/venv/lib/python3.11/site-packages/resources/programming/language/python.png" width="101px" height="101px" preserveAspectRatio="xMinYMin meet" x="24.5" y="-517"/>
<text text-anchor="middle" x="75" y="-401.6" font-family="Sans-Serif" font-size="13.00" fill="#2d3436">Make Funding QR</text>
</g>
<!-- 13dc8e7db40b4419925ea82bb69ca8df&#45;&gt;607bbe0c15094154af5cd6abcbca138c -->
<g id="edge9" class="edge">
<title>13dc8e7db40b4419925ea82bb69ca8df&#45;&gt;607bbe0c15094154af5cd6abcbca138c</title>
<path fill="none" stroke="#7b8894" d="M75,-616.73C75,-594.09 75,-568.68 75,-545.34"/>
<polygon fill="#7b8894" stroke="#7b8894" points="78.5,-545.13 75,-535.13 71.5,-545.13 78.5,-545.13"/>
</g>
<!-- c6ae4ddfe641430e8cf1a0c6844479c2 -->
<g id="node16" class="node">
<title>c6ae4ddfe641430e8cf1a0c6844479c2</title>
<image xlink:href="/home/matt/WebDev/web-app/infrastructure/tools/venv/lib/python3.11/site-packages/resources/programming/language/python.png" width="101px" height="101px" preserveAspectRatio="xMinYMin meet" x="456.5" y="-517"/>
<text text-anchor="middle" x="507" y="-401.6" font-family="Sans-Serif" font-size="13.00" fill="#2d3436">Assign roles</text>
</g>
<!-- d45eb0c60c3540f688eaa387086c6674&#45;&gt;c6ae4ddfe641430e8cf1a0c6844479c2 -->
<g id="edge10" class="edge">
<title>d45eb0c60c3540f688eaa387086c6674&#45;&gt;c6ae4ddfe641430e8cf1a0c6844479c2</title>
<path fill="none" stroke="#7b8894" d="M507,-616.73C507,-594.09 507,-568.68 507,-545.34"/>
<polygon fill="#7b8894" stroke="#7b8894" points="510.5,-545.13 507,-535.13 503.5,-545.13 510.5,-545.13"/>
</g>
<!-- 1fa5e606a95b417c89516d1c8ce3c94b -->
<g id="node9" class="node">
<title>1fa5e606a95b417c89516d1c8ce3c94b</title>
<image xlink:href="/home/matt/WebDev/web-app/infrastructure/tools/venv/lib/python3.11/site-packages/resources/firebase/develop/authentication.png" width="101px" height="101px" preserveAspectRatio="xMinYMin meet" x="744.5" y="-736"/>
<text text-anchor="middle" x="795" y="-620.6" font-family="Sans-Serif" font-size="13.00" fill="#2d3436">Firebase</text>
</g>
<!-- 479f5b7091d2469a8be8f195805648ce -->
<g id="node10" class="node">
<title>479f5b7091d2469a8be8f195805648ce</title>
<image xlink:href="/home/matt/WebDev/web-app/infrastructure/tools/venv/lib/python3.11/site-packages/resources/onprem/database/mongodb.png" width="101px" height="101px" preserveAspectRatio="xMinYMin meet" x="600.5" y="-736"/>
<text text-anchor="middle" x="651" y="-620.6" font-family="Sans-Serif" font-size="13.00" fill="#2d3436">User Database</text>
</g>
<!-- 51dd8207561d49c2b5978777d5a6f083 -->
<g id="node17" class="node">
<title>51dd8207561d49c2b5978777d5a6f083</title>
<image xlink:href="/home/matt/WebDev/web-app/infrastructure/tools/venv/lib/python3.11/site-packages/resources/programming/language/python.png" width="101px" height="101px" preserveAspectRatio="xMinYMin meet" x="456.5" y="-326"/>
<text text-anchor="middle" x="507" y="-210.6" font-family="Sans-Serif" font-size="13.00" fill="#2d3436">Pay coins</text>
</g>
<!-- 9ed414aa58c948069db1b57a3ebcfb66&#45;&gt;51dd8207561d49c2b5978777d5a6f083 -->
<g id="edge11" class="edge">
<title>9ed414aa58c948069db1b57a3ebcfb66&#45;&gt;51dd8207561d49c2b5978777d5a6f083</title>
<path fill="none" stroke="#7b8894" d="M413.52,-400.94C420.76,-391.59 428.09,-382.06 435,-373 440.1,-366.31 445.38,-359.34 450.65,-352.34"/>
<polygon fill="#7b8894" stroke="#7b8894" points="453.61,-354.22 456.82,-344.12 448.01,-350.01 453.61,-354.22"/>
</g>
<!-- 2c97ab616f5e4639a84c8f3456d1246c -->
<g id="node18" class="node">
<title>2c97ab616f5e4639a84c8f3456d1246c</title>
<image xlink:href="/home/matt/WebDev/web-app/infrastructure/tools/venv/lib/python3.11/site-packages/resources/programming/language/python.png" width="101px" height="101px" preserveAspectRatio="xMinYMin meet" x="312.5" y="-326"/>
<text text-anchor="middle" x="363" y="-210.6" font-family="Sans-Serif" font-size="13.00" fill="#2d3436">Get coins</text>
</g>
<!-- 9ed414aa58c948069db1b57a3ebcfb66&#45;&gt;2c97ab616f5e4639a84c8f3456d1246c -->
<g id="edge12" class="edge">
<title>9ed414aa58c948069db1b57a3ebcfb66&#45;&gt;2c97ab616f5e4639a84c8f3456d1246c</title>
<path fill="none" stroke="#7b8894" d="M363,-397.8C363,-383.74 363,-368.81 363,-354.41"/>
<polygon fill="#7b8894" stroke="#7b8894" points="366.5,-354.04 363,-344.04 359.5,-354.04 366.5,-354.04"/>
</g>
<!-- 4e07b56edee94069a32863886fba5bc3 -->
<g id="node13" class="node">
<title>4e07b56edee94069a32863886fba5bc3</title>
<image xlink:href="/home/matt/WebDev/web-app/infrastructure/tools/venv/lib/python3.11/site-packages/resources/programming/language/python.png" width="101px" height="101px" preserveAspectRatio="xMinYMin meet" x="168.5" y="-326"/>
<text text-anchor="middle" x="219" y="-210.6" font-family="Sans-Serif" font-size="13.00" fill="#2d3436">Request Payout</text>
</g>
<!-- f0e4eb0f54a64bd6a8c4a53065c6d482&#45;&gt;4e07b56edee94069a32863886fba5bc3 -->
<g id="edge13" class="edge">
<title>f0e4eb0f54a64bd6a8c4a53065c6d482&#45;&gt;4e07b56edee94069a32863886fba5bc3</title>
<path fill="none" stroke="#7b8894" d="M219,-397.8C219,-380.32 219,-361.51 219,-344.04"/>
</g>
<!-- 66a70d3963b74b3e9ef73ef12bcff7e1 -->
<g id="node21" class="node">
<title>66a70d3963b74b3e9ef73ef12bcff7e1</title>
<image xlink:href="/home/matt/WebDev/web-app/infrastructure/tools/venv/lib/python3.11/site-packages/resources/onprem/database/mongodb.png" width="101px" height="101px" preserveAspectRatio="xMinYMin meet" x="384.5" y="-135"/>
<text text-anchor="middle" x="435" y="-19.6" font-family="Sans-Serif" font-size="13.00" fill="#2d3436">QRs database</text>
</g>
<!-- f0e4eb0f54a64bd6a8c4a53065c6d482&#45;&gt;66a70d3963b74b3e9ef73ef12bcff7e1 -->
<g id="edge21" class="edge">
<title>f0e4eb0f54a64bd6a8c4a53065c6d482&#45;&gt;66a70d3963b74b3e9ef73ef12bcff7e1</title>
<path fill="none" stroke="#7b8894" d="M269.74,-405.26C277.27,-399.21 285.41,-393.88 294,-390 322.6,-377.07 554.48,-395.85 576,-373 631.45,-314.11 612.22,-263.33 576,-191 558.87,-156.79 524.79,-130.81 494.43,-113.2"/>
<polygon fill="#7b8894" stroke="#7b8894" points="496,-110.07 485.57,-108.23 492.58,-116.17 496,-110.07"/>
</g>
<!-- 8031883e227c4783b5c47ace538d2cb9 -->
<g id="node19" class="node">
<title>8031883e227c4783b5c47ace538d2cb9</title>
<image xlink:href="/home/matt/WebDev/web-app/infrastructure/tools/venv/lib/python3.11/site-packages/resources/onprem/database/mongodb.png" width="101px" height="101px" preserveAspectRatio="xMinYMin meet" x="96.5" y="-135"/>
<text text-anchor="middle" x="147" y="-19.6" font-family="Sans-Serif" font-size="13.00" fill="#2d3436">Payout DB</text>
</g>
<!-- 4e07b56edee94069a32863886fba5bc3&#45;&gt;8031883e227c4783b5c47ace538d2cb9 -->
<g id="edge16" class="edge">
<title>4e07b56edee94069a32863886fba5bc3&#45;&gt;8031883e227c4783b5c47ace538d2cb9</title>
<path fill="none" stroke="#7b8894" d="M193.21,-206.8C187.75,-192.46 181.94,-177.23 176.36,-162.58"/>
<polygon fill="#7b8894" stroke="#7b8894" points="179.56,-161.14 172.73,-153.04 173.02,-163.64 179.56,-161.14"/>
</g>
<!-- 09a29a3f45104c64a7263eea73188e07 -->
<g id="node20" class="node">
<title>09a29a3f45104c64a7263eea73188e07</title>
<image xlink:href="/home/matt/WebDev/web-app/infrastructure/tools/venv/lib/python3.11/site-packages/resources/onprem/database/mongodb.png" width="101px" height="101px" preserveAspectRatio="xMinYMin meet" x="240.5" y="-135"/>
<text text-anchor="middle" x="291" y="-19.6" font-family="Sans-Serif" font-size="13.00" fill="#2d3436">Coins DB</text>
</g>
<!-- 4e07b56edee94069a32863886fba5bc3&#45;&gt;09a29a3f45104c64a7263eea73188e07 -->
<g id="edge17" class="edge">
<title>4e07b56edee94069a32863886fba5bc3&#45;&gt;09a29a3f45104c64a7263eea73188e07</title>
<path fill="none" stroke="#7b8894" d="M244.79,-206.8C250.25,-192.46 256.06,-177.23 261.64,-162.58"/>
<polygon fill="#7b8894" stroke="#7b8894" points="264.98,-163.64 265.27,-153.04 258.44,-161.14 264.98,-163.64"/>
</g>
<!-- 6119576d16a64e71a2e9e08fccc150cb -->
<g id="node15" class="node">
<title>6119576d16a64e71a2e9e08fccc150cb</title>
<image xlink:href="/home/matt/WebDev/web-app/infrastructure/tools/venv/lib/python3.11/site-packages/resources/programming/language/python.png" width="101px" height="101px" preserveAspectRatio="xMinYMin meet" x="24.5" y="-326"/>
<text text-anchor="middle" x="75" y="-210.6" font-family="Sans-Serif" font-size="13.00" fill="#2d3436">View payout requests</text>
</g>
<!-- 607bbe0c15094154af5cd6abcbca138c&#45;&gt;6119576d16a64e71a2e9e08fccc150cb -->
<g id="edge14" class="edge">
<title>607bbe0c15094154af5cd6abcbca138c&#45;&gt;6119576d16a64e71a2e9e08fccc150cb</title>
<path fill="none" stroke="#7b8894" d="M75,-397.8C75,-380.32 75,-361.51 75,-344.04"/>
</g>
<!-- 6119576d16a64e71a2e9e08fccc150cb&#45;&gt;8031883e227c4783b5c47ace538d2cb9 -->
<g id="edge18" class="edge">
<title>6119576d16a64e71a2e9e08fccc150cb&#45;&gt;8031883e227c4783b5c47ace538d2cb9</title>
<path fill="none" stroke="#7b8894" d="M100.79,-206.8C106.25,-192.46 112.06,-177.23 117.64,-162.58"/>
<polygon fill="#7b8894" stroke="#7b8894" points="120.98,-163.64 121.27,-153.04 114.44,-161.14 120.98,-163.64"/>
</g>
<!-- c6ae4ddfe641430e8cf1a0c6844479c2&#45;&gt;479f5b7091d2469a8be8f195805648ce -->
<g id="edge15" class="edge">
<title>c6ae4ddfe641430e8cf1a0c6844479c2&#45;&gt;479f5b7091d2469a8be8f195805648ce</title>
<path fill="none" stroke="#7b8894" d="M553.04,-535.25C567.22,-556.26 582.83,-579.54 597,-601 598.61,-603.43 600.23,-605.9 601.88,-608.4"/>
<polygon fill="#7b8894" stroke="#7b8894" points="599.08,-610.53 607.49,-616.98 604.94,-606.7 599.08,-610.53"/>
</g>
<!-- 51dd8207561d49c2b5978777d5a6f083&#45;&gt;66a70d3963b74b3e9ef73ef12bcff7e1 -->
<g id="edge20" class="edge">
<title>51dd8207561d49c2b5978777d5a6f083&#45;&gt;66a70d3963b74b3e9ef73ef12bcff7e1</title>
<path fill="none" stroke="#7b8894" d="M481.21,-206.8C475.75,-192.46 469.94,-177.23 464.36,-162.58"/>
<polygon fill="#7b8894" stroke="#7b8894" points="467.56,-161.14 460.73,-153.04 461.02,-163.64 467.56,-161.14"/>
</g>
<!-- 2c97ab616f5e4639a84c8f3456d1246c&#45;&gt;66a70d3963b74b3e9ef73ef12bcff7e1 -->
<g id="edge19" class="edge">
<title>2c97ab616f5e4639a84c8f3456d1246c&#45;&gt;66a70d3963b74b3e9ef73ef12bcff7e1</title>
<path fill="none" stroke="#7b8894" d="M388.79,-206.8C394.25,-192.46 400.06,-177.23 405.64,-162.58"/>
<polygon fill="#7b8894" stroke="#7b8894" points="408.98,-163.64 409.27,-153.04 402.44,-161.14 408.98,-163.64"/>
</g>
</g>
</svg>
